
<svg version="1.1" xmlns="http://www.w3.org/2000/svg" width="278" height="278" viewBox="0 0 278 278" xmlns:xlink="http://www.w3.org/1999/xlink" enable-background="new 0 0 278 278">
  <g>
    <path d="m278,91.506c0-6.109-2.567-11.619-6.666-15.543 4.099-3.924 6.666-9.434 6.666-15.543 0-11.878-9.664-21.542-21.543-21.542h-100.637c-10.726,0-19.621,7.889-21.25,18.164-30.38,1.624-56.416,19.847-69.204,45.739h-43.823c-11.879,0-21.543,9.664-21.543,21.543 0,6.108 2.567,11.618 6.666,15.542-4.099,3.924-6.666,9.435-6.666,15.543 0,6.108 2.567,11.618 6.666,15.542-4.099,3.925-6.666,9.435-6.666,15.543 0,6.109 2.567,11.619 6.666,15.543-4.099,3.924-6.666,9.434-6.666,15.543 0,11.878 9.664,21.542 21.543,21.542h100.637c10.726,0 19.621-7.889 21.25-18.164 30.38-1.624 56.416-19.847 69.204-45.739h43.823c11.879,0 21.543-9.664 21.543-21.543 0-6.108-2.567-11.618-6.666-15.542 4.098-3.924 6.666-9.434 6.666-15.543 0-6.108-2.567-11.618-6.666-15.542 4.099-3.925 6.666-9.435 6.666-15.543zm-12,0c0,5.262-4.281,9.542-9.543,9.542h-44.712c-3.677-7.019-8.337-13.44-13.802-19.085h58.513c5.263,0 9.544,4.281 9.544,9.543zm0,31.085c0,5.262-4.281,9.542-9.543,9.542h-35.685c-0.551-6.615-1.888-13.006-3.92-19.085h39.605c5.262,2.84217e-14 9.543,4.281 9.543,9.543zm0,31.085c0,5.262-4.281,9.543-9.543,9.543h-39.026c1.885-6.091 3.064-12.485 3.473-19.085h35.553c5.262,0 9.543,4.281 9.543,9.542zm-143.82,73.446h-100.637c-5.262,0-9.543-4.281-9.543-9.542s4.281-9.542 9.543-9.542h73.144c10.726,6.909 23.147,11.396 36.5,12.663-1.297,3.731-4.84,6.421-9.007,6.421zm-110.18-40.628c0-5.262 4.281-9.542 9.543-9.542h44.712c3.677,7.019 8.337,13.44 13.802,19.085h-58.514c-5.262,0-9.543-4.281-9.543-9.543zm0-31.085c0-5.262 4.281-9.542 9.543-9.542h35.685c0.551,6.615 1.888,13.006 3.92,19.085h-39.605c-5.262,0-9.543-4.281-9.543-9.543zm0-31.085c0-5.262 4.281-9.543 9.543-9.543h39.026c-1.885,6.091-3.064,12.485-3.473,19.085h-35.553c-5.262,0-9.543-4.281-9.543-9.542zm127,84.758c-38.643,0-70.081-31.438-70.081-70.082s31.438-70.082 70.081-70.082 70.081,31.438 70.081,70.082-31.438,70.082-70.081,70.082zm16.82-158.204h100.637c5.262,1.42109e-14 9.543,4.281 9.543,9.542s-4.281,9.542-9.543,9.542h-73.144c-10.726-6.909-23.147-11.396-36.5-12.663 1.297-3.731 4.84-6.421 9.007-6.421z"/>
    <path d="M198.798,139c0-32.973-26.825-59.798-59.798-59.798S79.202,106.027,79.202,139s26.825,59.798,59.798,59.798   S198.798,171.973,198.798,139z M139,186.798c-26.355,0-47.798-21.442-47.798-47.798S112.645,91.202,139,91.202   s47.798,21.442,47.798,47.798S165.355,186.798,139,186.798z"/>
    <path d="m145,170.952v-1.876c9.6-2.094 16.478-9.127 16.478-17.718s-6.878-15.623-16.478-17.717v-12.15c2.785,1.245 4.478,3.265 4.478,5.151 0,3.313 2.687,6 6,6s6-2.687 6-6c0-8.59-6.877-15.623-16.478-17.718v-1.876c0-3.313-2.687-6-6-6s-6,2.687-6,6v1.876c-9.6,2.094-16.478,9.127-16.478,17.718s6.878,15.623 16.478,17.717v12.15c-2.785-1.245-4.478-3.265-4.478-5.151 0-3.313-2.687-6-6-6s-6,2.687-6,6c0,8.59 6.877,15.623 16.478,17.718v1.876c0,3.313 2.687,6 6,6s6-2.687 6-6zm-16.478-44.31c0-1.886 1.693-3.906 4.478-5.151v10.302c-2.785-1.245-4.478-3.266-4.478-5.151zm20.956,24.716c0,1.886-1.693,3.906-4.478,5.151v-10.302c2.785,1.245 4.478,3.266 4.478,5.151z"/>
  </g>
</svg>